<svg width="992" height="241" viewBox="0 0 992 241" fill="none" xmlns="http://www.w3.org/2000/svg">
<path d="M75.0836 147H22.0836C22.0836 190.078 57.0054 225 100.084 225H120.084C109.801 217.761 103.084 200.53 103.084 187C103.084 186.967 103.084 186.933 103.084 186.9V175C103.084 159.536 90.5476 147 75.0836 147Z" fill="#7614EB"/>
<path d="M137 95C137 50.8172 172.817 15 217 15V145C217 189.183 181.183 225 137 225H94.0003C81.1287 225 68.0002 219 58.5002 213C66.0002 216 74.9548 219 83.5001 219C112.536 219 136.191 196.301 137 168V95Z" fill="#FF0021"/>
<path d="M329.316 201.701C329.316 214.438 326.095 224.029 319.651 230.472C313.358 236.915 303.393 240.137 289.757 240.137C287.06 240.137 284.213 239.987 281.216 239.687C278.368 239.388 275.297 239.013 272 238.564V208.669C273.948 208.969 275.746 209.194 277.394 209.344C279.043 209.493 280.541 209.568 281.89 209.568C287.734 209.568 291.48 208.22 293.128 205.522C294.927 202.975 295.826 198.555 295.826 192.261V104.834H274.147V75.3345L329.316 75.1558V201.701Z" fill="black"/>
<path d="M349.047 134.495C349.047 125.654 350.62 117.488 353.767 109.995C356.914 102.353 361.185 95.8347 366.579 90.4402C372.123 84.8959 378.642 80.6252 386.134 77.6283C393.776 74.4815 402.093 72.9081 411.083 72.9081C420.074 72.9081 428.316 74.4815 435.808 77.6283C443.45 80.6252 450.044 84.8959 455.588 90.4402C461.282 95.9845 465.703 102.503 468.849 109.995C471.996 117.488 473.57 125.654 473.57 134.495C473.57 143.336 471.996 151.503 468.849 158.995C465.703 166.487 461.282 173.006 455.588 178.55C450.044 183.945 443.45 188.215 435.808 191.362C428.316 194.359 420.074 195.857 411.083 195.857C402.093 195.857 393.776 194.359 386.134 191.362C378.642 188.215 372.123 183.945 366.579 178.55C361.185 173.006 356.914 166.487 353.767 158.995C350.62 151.503 349.047 143.336 349.047 134.495ZM383.662 134.72C383.662 138.466 384.336 142.062 385.684 145.509C387.033 148.955 388.906 151.952 391.304 154.5C393.851 157.047 396.848 159.07 400.295 160.568C403.741 162.067 407.487 162.816 411.533 162.816C415.579 162.816 419.25 162.067 422.547 160.568C425.993 159.07 428.84 157.047 431.088 154.5C433.486 151.952 435.359 148.955 436.707 145.509C438.056 142.062 438.73 138.466 438.73 134.72C438.73 130.824 438.056 127.153 436.707 123.706C435.508 120.11 433.71 117.038 431.313 114.491C428.915 111.793 425.993 109.696 422.547 108.197C419.25 106.699 415.579 105.949 411.533 105.949C407.337 105.949 403.516 106.699 400.07 108.197C396.773 109.696 393.851 111.793 391.304 114.491C388.906 117.038 387.033 120.11 385.684 123.706C384.336 127.153 383.662 130.824 383.662 134.72Z" fill="black"/>
<path d="M616.602 134.72C616.602 143.561 615.179 151.727 612.332 159.22C609.634 166.712 605.813 173.156 600.868 178.55C595.923 183.945 590.004 188.215 583.112 191.362C576.219 194.359 568.576 195.857 560.185 195.857C551.794 195.857 544.826 194.434 539.281 191.587C533.887 188.74 529.466 184.844 526.02 179.899V193.834H492.529V32H526.02V89.0916C529.466 84.1466 533.887 80.2506 539.281 77.4035C544.826 74.4066 551.719 72.9081 559.96 72.9081C568.352 72.9081 575.994 74.4815 582.887 77.6283C589.93 80.6252 595.923 84.8959 600.868 90.4402C605.813 95.9845 609.634 102.503 612.332 109.995C615.179 117.488 616.602 125.729 616.602 134.72ZM526.02 129.775V139.215C526.769 145.958 529.691 151.578 534.786 156.073C539.881 160.568 546.249 162.816 553.891 162.816C558.237 162.816 562.133 162.067 565.579 160.568C569.026 159.07 571.948 157.047 574.345 154.5C576.893 151.952 578.766 148.955 579.965 145.509C581.313 142.062 581.988 138.466 581.988 134.72C581.988 130.824 581.313 127.153 579.965 123.706C578.766 120.11 576.893 117.038 574.345 114.491C571.948 111.793 569.026 109.696 565.579 108.197C562.133 106.699 558.237 105.949 553.891 105.949C546.249 105.949 539.881 108.272 534.786 112.917C529.841 117.413 526.919 123.032 526.02 129.775Z" fill="black"/>
<path d="M759.498 134.72C759.498 143.561 758.074 151.727 755.227 159.22C752.53 166.712 748.709 173.156 743.764 178.55C738.819 183.945 732.9 188.215 726.007 191.362C719.114 194.359 711.472 195.857 703.081 195.857C694.689 195.857 687.721 194.434 682.177 191.587C676.783 188.74 672.362 184.844 668.916 179.899V193.834H635.425V32H668.916V89.0916C672.362 84.1466 676.783 80.2506 682.177 77.4035C687.721 74.4066 694.614 72.9081 702.856 72.9081C711.247 72.9081 718.89 74.4815 725.783 77.6283C732.825 80.6252 738.819 84.8959 743.764 90.4402C748.709 95.9845 752.53 102.503 755.227 109.995C758.074 117.488 759.498 125.729 759.498 134.72ZM668.916 129.775V139.215C669.665 145.958 672.587 151.578 677.682 156.073C682.777 160.568 689.145 162.816 696.787 162.816C701.133 162.816 705.029 162.067 708.475 160.568C711.922 159.07 714.844 157.047 717.241 154.5C719.789 151.952 721.662 148.955 722.861 145.509C724.209 142.062 724.883 138.466 724.883 134.72C724.883 130.824 724.209 127.153 722.861 123.706C721.662 120.11 719.789 117.038 717.241 114.491C714.844 111.793 711.922 109.696 708.475 108.197C705.029 106.699 701.133 105.949 696.787 105.949C689.145 105.949 682.777 108.272 677.682 112.917C672.737 117.413 669.815 123.032 668.916 129.775Z" fill="black"/>
<path d="M806.417 141.913C807.616 148.955 810.688 154.724 815.633 159.22C820.578 163.565 826.946 165.738 834.738 165.738C839.533 165.738 843.954 164.539 847.999 162.142C852.045 159.744 855.117 156.822 857.215 153.376H893.403C891.905 159.819 889.357 165.663 885.761 170.908C882.314 176.152 877.969 180.648 872.724 184.394C867.629 187.99 861.785 190.837 855.192 192.935C848.749 194.883 841.706 195.857 834.064 195.857C825.073 195.857 816.756 194.359 809.114 191.362C801.622 188.215 795.104 183.945 789.559 178.55C784.165 173.006 779.894 166.487 776.747 158.995C773.601 151.503 772.027 143.336 772.027 134.495C772.027 125.654 773.526 117.488 776.523 109.995C779.669 102.353 783.94 95.8347 789.334 90.4402C794.879 84.8959 801.397 80.6252 808.889 77.6283C816.382 74.4815 824.623 72.9081 833.614 72.9081C842.006 72.9081 849.723 74.1818 856.766 76.7292C863.958 79.1268 870.252 82.6482 875.646 87.2934C881.041 91.7888 885.386 97.2582 888.683 103.702C892.129 109.995 894.302 116.963 895.201 124.605C895.501 128.052 895.651 130.674 895.651 132.472C895.801 134.121 895.875 135.394 895.875 136.293C895.875 138.091 895.801 139.965 895.651 141.913H806.417ZM859.688 123.481C858.639 117.488 855.792 112.618 851.146 108.871C846.501 104.975 840.807 103.027 834.064 103.027C827.021 103.027 821.252 104.9 816.756 108.647C812.261 112.393 809.189 117.338 807.541 123.481H859.688Z" fill="black"/>
<path d="M914.631 75.1558H948.122V96.509C953.067 88.5671 959.286 82.6482 966.778 78.7522C974.42 74.8561 982.587 72.9081 991.278 72.9081V108.197C990.679 108.197 990.154 108.197 989.705 108.197C984.91 108.197 980.115 108.871 975.319 110.22C970.524 111.419 966.179 113.442 962.283 116.289C958.387 119.136 955.165 122.657 952.618 126.853C950.07 130.899 948.572 135.694 948.122 141.238V193.834H914.631V75.1558Z" fill="black"/>
</svg>
