<svg width="144" height="144" viewBox="0 0 144 144" fill="none" xmlns="http://www.w3.org/2000/svg">
<rect y="20" width="144" height="124" rx="28" fill="url(#paint0_linear_1308_847)"/>
<rect x="69" y="36" width="28" height="28" rx="14" fill="white"/>
<mask id="mask0_1308_847" style="mask-type:alpha" maskUnits="userSpaceOnUse" x="37" y="68" width="60" height="60">
<path d="M37 114C37 106.268 43.268 100 51 100H83C90.732 100 97 106.268 97 114C97 121.732 90.732 128 83 128H51C43.268 128 37 121.732 37 114Z" fill="url(#paint1_linear_1308_847)"/>
<path d="M69 82C69 74.268 75.268 68 83 68C90.732 68 97 74.268 97 82V114C97 121.732 90.732 128 83 128C75.268 128 69 121.732 69 114V82Z" fill="url(#paint2_linear_1308_847)"/>
</mask>
<g mask="url(#mask0_1308_847)">
<path d="M37 68H97V98C97 114.569 83.5685 128 67 128H37V68Z" fill="white"/>
<g filter="url(#filter0_i_1308_847)">
<rect x="13" y="72" width="56" height="56" rx="28" fill="white"/>
</g>
</g>
<rect x="49" y="6" width="46" height="8" rx="4" fill="url(#paint3_linear_1308_847)"/>
<defs>
<filter id="filter0_i_1308_847" x="7" y="72" width="62" height="57" filterUnits="userSpaceOnUse" color-interpolation-filters="sRGB">
<feFlood flood-opacity="0" result="BackgroundImageFix"/>
<feBlend mode="normal" in="SourceGraphic" in2="BackgroundImageFix" result="shape"/>
<feColorMatrix in="SourceAlpha" type="matrix" values="0 0 0 0 0 0 0 0 0 0 0 0 0 0 0 0 0 0 127 0" result="hardAlpha"/>
<feOffset dx="-6" dy="1"/>
<feGaussianBlur stdDeviation="3"/>
<feComposite in2="hardAlpha" operator="arithmetic" k2="-1" k3="1"/>
<feColorMatrix type="matrix" values="0 0 0 0 0 0 0 0 0 0 0 0 0 0 0 0 0 0 0.2 0"/>
<feBlend mode="normal" in2="shape" result="effect1_innerShadow_1308_847"/>
</filter>
<linearGradient id="paint0_linear_1308_847" x1="72" y1="0.514287" x2="72" y2="163.486" gradientUnits="userSpaceOnUse">
<stop stop-color="#418BF9"/>
<stop offset="1" stop-color="#11D4FF"/>
</linearGradient>
<linearGradient id="paint1_linear_1308_847" x1="83" y1="68" x2="83" y2="128" gradientUnits="userSpaceOnUse">
<stop stop-color="#418BF9"/>
<stop offset="1" stop-color="#11D4FF"/>
</linearGradient>
<linearGradient id="paint2_linear_1308_847" x1="83" y1="68" x2="83" y2="128" gradientUnits="userSpaceOnUse">
<stop stop-color="#418BF9"/>
<stop offset="1" stop-color="#11D4FF"/>
</linearGradient>
<linearGradient id="paint3_linear_1308_847" x1="72" y1="2" x2="72" y2="146" gradientUnits="userSpaceOnUse">
<stop stop-color="#418BF9"/>
<stop offset="1" stop-color="#11D4FF"/>
</linearGradient>
</defs>
</svg>
