<svg width="1920" height="668" viewBox="0 0 1920 668" fill="none" xmlns="http://www.w3.org/2000/svg">
  <g clip-path="url(#clip0_108_39)">
    <rect width="1920" height="668" fill="#F5ECFE"/>
    <path id="line1" fill-rule="evenodd" clip-rule="evenodd" d="M158.936 219.836V369.746H158.935L158.936 369.749L-37.6138 459.695L-39 456.666L155.605 367.61V-59.9985H158.936V216.133L610.546 -3.03051L612 -0.0334358L158.936 219.836Z" fill="url(#paint0_linear_108_39)"/>
    <path id="line2" fill-rule="evenodd" clip-rule="evenodd" d="M1814 69.0122V-22H1809.52V70.9462L1487.1 210.269V629.124V629.13L1097.26 798.236L1099 802.359L1491.57 632.066L1491.98 631.889L1957.05 430.93V426.054L1501.38 622.954L1501.37 622.939L1491.57 627.189V213.211L1957.05 12.075V7.19922L1814 69.0122Z" fill="url(#paint1_linear_108_39)"/>
    <circle id="dot1" r="20" fill="url(#paint2_linear_108_39)">
      <animateMotion dur="30s" repeatCount="indefinite">
        <mpath href="#line1"/>
      </animateMotion>
    </circle>
    <circle id="dot2" r="20" fill="url(#paint3_linear_108_39)">
      <animateMotion dur="35s" repeatCount="indefinite">
        <mpath href="#line2"/>
      </animateMotion>
    </circle>
  </g>
  <defs>
    <linearGradient id="paint0_linear_108_39" x1="286.5" y1="-59.9985" x2="286.5" y2="1339.57" gradientUnits="userSpaceOnUse">
      <stop offset="0.0118721" stop-color="#7614EB"/>
      <stop offset="1" stop-color="#FF0021"/>
    </linearGradient>
    <linearGradient id="paint1_linear_108_39" x1="1527.15" y1="-22" x2="1527.15" y2="2198.04" gradientUnits="userSpaceOnUse">
      <stop offset="0.0118721" stop-color="#7614EB"/>
      <stop offset="1" stop-color="#FF0021"/>
    </linearGradient>
    <linearGradient id="paint2_linear_108_39" x1="158.936" y1="199.836" x2="158.936" y2="279.836" gradientUnits="userSpaceOnUse">
      <stop offset="0.0118721" stop-color="#7614EB"/>
      <stop offset="1" stop-color="#FF0021"/>
    </linearGradient>
    <linearGradient id="paint3_linear_108_39" x1="1814" y1="49.0122" x2="1814" y2="129.012" gradientUnits="userSpaceOnUse">
      <stop offset="0.0118721" stop-color="#7614EB"/>
      <stop offset="1" stop-color="#FF0021"/>
    </linearGradient>
    <clipPath id="clip0_108_39">
      <rect width="1920" height="668" fill="white"/>
    </clipPath>
  </defs>
</svg>
